HIERARCHY
ROOT Hips
{
  OFFSET 196.326 95.9168 97.7182
  CHANNELS 6 Xposition Yposition Zposition Zrotation Xrotation Yrotation
  JOINT LeftUpLeg
  {
    OFFSET 8.64259 1.95398 -2.38835
    CHANNELS 3 Zrotation Xrotation Yrotation
    JOINT LeftLeg
    {
      OFFSET 43.7702 0 0
      CHANNELS 3 Zrotation Xrotation Yrotation
      JOINT LeftFoot
      {
        OFFSET 40.6238 0 0
        CHANNELS 3 Zrotation Xrotation Yrotation
        JOINT LeftToeBase
        {
          OFFSET 12.7242 0 0
          CHANNELS 3 Zrotation Xrotation Yrotation
          End Site
          {
            OFFSET 0 0 0
          }
        }
      }
    }
  }
  JOINT RightUpLeg
  {
    OFFSET -8.2249 1.95398 -2.59336
    CHANNELS 3 Zrotation Xrotation Yrotation
    JOINT RightLeg
    {
      OFFSET 43.5653 0 0
      CHANNELS 3 Zrotation Xrotation Yrotation
      JOINT RightFoot
      {
        OFFSET 40.6238 0 0
        CHANNELS 3 Zrotation Xrotation Yrotation
        JOINT RightToeBase
        {
          OFFSET 12.7242 0 0
          CHANNELS 3 Zrotation Xrotation Yrotation
          End Site
          {
            OFFSET 0 0 0
          }
        }
      }
    }
  }
  JOINT Spine
  {
    OFFSET 0.165834 0.87714 6.61349
    CHANNELS 3 Zrotation Xrotation Yrotation
    JOINT Spine1
    {
      OFFSET 7.38963 1.71661e-005 0
      CHANNELS 3 Zrotation Xrotation Yrotation
      JOINT Spine2
      {
        OFFSET 11.9445 1.14441e-005 0
        CHANNELS 3 Zrotation Xrotation Yrotation
        JOINT Spine3
        {
          OFFSET 14.7254 4.19617e-005 0
          CHANNELS 3 Zrotation Xrotation Yrotation
          JOINT Spine4
          {
            OFFSET 10.9679 0 0
            CHANNELS 3 Zrotation Xrotation Yrotation
            JOINT RightShoulder
            {
              OFFSET 2.46616 -1.6653 3.69651
              CHANNELS 3 Zrotation Xrotation Yrotation
              JOINT RightArm
              {
                OFFSET 13.0012 0 0
                CHANNELS 3 Zrotation Xrotation Yrotation
                JOINT RightForeArm
                {
                  OFFSET 28.7848 1.52588e-005 0
                  CHANNELS 3 Zrotation Xrotation Yrotation
                  JOINT RightHand
                  {
                    OFFSET 26.5688 1.52588e-005 0
                    CHANNELS 3 Zrotation Xrotation Yrotation
                    End Site
                    {
                      OFFSET 0 0 0
                    }
                  }
                }
              }
            }
            JOINT LeftShoulder
            {
              OFFSET 2.38034 -1.29275 -3.75231
              CHANNELS 3 Zrotation Xrotation Yrotation
              JOINT LeftArm
              {
                OFFSET 16.3182 6.10351e-005 0
                CHANNELS 3 Zrotation Xrotation Yrotation
                JOINT LeftForeArm
                {
                  OFFSET 27.0901 0 0
                  CHANNELS 3 Zrotation Xrotation Yrotation
                  JOINT LeftHand
                  {
                    OFFSET 24.5451 1.52588e-005 0
                    CHANNELS 3 Zrotation Xrotation Yrotation
                    End Site
                    {
                      OFFSET 0 0 0
                    }
                  }
                }
              }
            }
            JOINT Neck
            {
              OFFSET 5.0226 -0.0266342 0
              CHANNELS 3 Zrotation Xrotation Yrotation
              JOINT Head
              {
                OFFSET 6.69363 2.86102e-005 0
                CHANNELS 3 Zrotation Xrotation Yrotation
                End Site
                {
                  OFFSET 0 0 0
                }
              }
            }
          }
        }
      }
    }
  }
}
MOTION
Frames:	14
Frame Time:	0.0416667
-46.3417 92.3301 -72.734 89.4739 -40.0491 87.0023 -169.193 24.4067 86.8804 -46.6234 21.1007 -4.14761 57.0885 3.27665 12.4799 57.5918 24.7688 -18.3267 177.365 38.4659 88.9676 -49.9499 18.9494 -0.499487 59.0224 -2.56731 -1.44654 40.9276 1.4081 15.1405 -0.302744 7.99063 -89.2931 10.8927 -0.275842 1.43221 -0.779063 -0.212574 1.44295 -23.3092 -0.693519 1.28313 -3.29654 -0.693521 1.28312 81.9715 -49.4985 -113.152 33.9483 -14.7255 32.2094 -11.1501 -5.20876 -67.4072 -18.6099 -0.875831 0.535462 -96.5094 -40.1095 65.614 -21.6364 -5.52508 17.3173 16.462 -2.03228 -94.1191 38.3442 4.63389 8.31779 4.57145 -1.33425 -3.44605 8.40906 -0.309658 2.90172 
-42.8939 93.135 -69.2669 89.1157 -38.6993 86.7619 -169.646 22.724 88.728 -46.4209 26.2143 -4.20479 53.2376 -1.11194 9.46154 63.0335 28.3755 -20.1177 179.445 36.2967 87.0105 -32.1085 15.3277 -0.0409728 49.7394 0.301232 0.621405 31.5199 -0.351916 13.3265 -0.466749 7.89796 -89.3719 11.0801 -0.637688 1.31149 -0.591424 -0.579341 1.33826 -23.1241 -1.00233 1.05924 -3.11143 -1.00234 1.05924 82.3316 -49.6163 -112.569 34.1005 -12.0759 35.252 -8.37759 -3.36069 -67.5309 -17.4188 -0.855397 0.664243 -96.1542 -39.1663 65.8273 -22.5606 -5.11234 16.5479 16.4391 -2.78971 -97.9473 37.9167 4.16192 7.18783 2.00635 -1.75566 -3.83495 9.70708 -0.649647 3.34073 
-39.3065 93.7739 -65.6781 90.5163 -36.7833 87.4636 -170.421 19.2812 90.6055 -45.7918 31.0222 -3.80167 50.7068 -3.7169 7.41572 68.2953 28.7267 -28.871 -179.388 32.3802 85.4588 -16.3167 10.2233 -0.507965 44.4852 2.35865 2.48369 22.7313 -1.96239 13.4769 -0.677469 7.92424 -89.4177 11.0303 -1.07863 1.26231 -0.640883 -1.02204 1.30855 -23.1769 -1.40813 0.87978 -3.16427 -1.40813 0.879781 83.3396 -49.143 -111.221 35.0533 -9.88956 38.0101 -8.45647 -2.53536 -68.0999 -15.5555 -0.723809 0.276947 -95.9642 -38.3361 65.8153 -23.0568 -3.93693 16.4291 17.3954 -4.35699 -101.962 36.4058 4.29039 8.03257 0.294305 -2.35437 -4.7598 10.2743 -1.01465 4.2778 
-35.5466 93.8967 -61.8131 90.7965 -34.8636 87.8734 -170.967 16.6361 92.8301 -45.2664 37.2385 -3.50272 47.426 -6.69435 5.82453 72.0805 30.3636 -30.9441 -179.001 30.9606 84.6859 -8.39657 10.918 -0.599961 42.8386 3.24712 3.3788 19.3667 -3.0084 16.3827 -0.853575 7.84167 -89.4896 11.1977 -1.46142 1.15952 -0.473021 -1.40897 1.22271 -23.0131 -1.74233 0.666626 -3.00043 -1.74234 0.666621 84.8248 -47.8088 -109.41 36.7872 -7.55381 40.3972 -8.30335 -2.8907 -68.0504 -14.4381 -0.534293 -0.886034 -95.4336 -37.401 66.3344 -23.4231 -2.26542 16.1737 18.0498 -6.02571 -105.737 34.185 3.97356 7.89344 -0.481945 -3.09394 -5.59802 10.56 -1.53832 5.06558 
-31.9188 93.4376 -58.077 92.0312 -32.3242 88.1861 -172.063 14.1755 94.1857 -47.0349 40.609 -2.4487 45.3982 -8.51899 4.05583 72.5904 29.2672 -34.2204 -179.295 30.5944 83.5639 -8.69716 13.951 -0.643659 42.2137 3.19658 3.36937 12.5396 -4.27839 15.6377 -1.12097 7.81569 -89.4404 11.2539 -1.97043 1.30905 -0.416338 -1.91088 1.3945 -22.9617 -2.2727 0.656146 -2.94907 -2.27271 0.656131 86.3231 -46.1573 -107.612 38.9757 -5.3264 42.6545 -10.1276 -3.14787 -68.523 -12.4229 -0.507943 -0.581551 -94.2677 -36.0404 67.7948 -24.2467 0.52317 15.8324 17.7942 -7.90172 -109.438 32.7655 3.39591 6.61084 -0.489682 -3.8513 -7.24192 9.97308 -1.93528 6.14923 
-28.5125 92.0617 -54.4986 93.984 -30.2845 88.4341 -173.523 12.1553 94.9297 -51.2119 43.1285 -1.20649 43.2773 -10.2486 2.62531 71.4056 29.7681 -31.3062 179.617 30.774 82.8513 -14.9004 12.4148 -0.251783 41.0329 3.21296 3.478 7.33551 -4.28224 11.3556 -1.33836 7.78816 -89.3451 11.3136 -2.35819 1.53911 -0.356222 -2.28816 1.64142 -22.9062 -2.71165 0.758875 -2.89355 -2.71166 0.758875 86.9118 -44.8135 -107.103 40.1703 -3.02049 45.0253 -11.3252 -3.24416 -68.1035 -9.61298 -0.330646 -1.7969 -93.8475 -35.5569 68.3371 -24.3519 2.9289 16.2643 17.8621 -9.9698 -112.817 30.6366 2.82939 5.4623 -1.3003 -4.44746 -7.72151 9.61827 -2.51287 6.3427 
-25.3914 90.1346 -51.2313 95.8449 -28.7339 87.9619 -175.364 11.2081 94.5996 -57.1284 42.3261 0.0437204 42.1763 -11.0204 0.860605 64.9106 28.2757 -24.1151 176.671 32.3125 82.0856 -26.1603 12.4018 1.85249 45.92 2.12678 2.27013 15.2638 -4.92731 21.597 -1.43573 7.74664 -89.1907 11.3998 -2.47905 1.86198 -0.270313 -2.39473 1.96929 -22.8203 -2.92395 1.03049 -2.80764 -2.92396 1.03049 87.1444 -45.2621 -106.587 39.3693 -1.63795 46.8197 -11.3498 -3.3242 -67.1662 -8.06537 -0.259954 -2.40736 -93.9209 -35.8117 68.306 -24.0084 5.63708 16.544 18.3379 -11.6194 -114.683 29.8018 3.05519 6.50634 -1.83385 -5.42571 -7.99635 8.73591 -3.50899 6.57717 
-22.3225 88.575 -48.2544 97.6375 -28.2685 89.9311 -176.794 11.2866 96.1052 -63.9714 39.7293 1.2744 42.3315 -10.2303 3.09173 56.2578 26.0579 -10.8532 175.284 33.3935 84.2174 -37.983 11.2934 2.41133 59.1987 -0.622698 -0.228501 18.5853 -3.78718 20.1406 -1.36389 7.7847 -89.4122 11.3218 -2.44006 1.41458 -0.347743 -2.37543 1.52062 -22.8998 -2.75232 0.615433 -2.88711 -2.75232 0.61543 86.6221 -45.6224 -107.308 37.941 -1.48356 46.99 -10.9621 -3.57584 -64.7213 -8.2503 -0.283553 -2.08355 -94.3266 -36.8239 67.9921 -24.4857 6.5203 16.1932 19.0089 -11.8181 -113.57 27.8792 2.85697 6.50205 -1.74498 -6.44377 -5.97747 8.04749 -4.97887 5.27325 
-19.4796 87.3596 -45.5824 98.2697 -29.0593 93.0534 -177.528 13.9238 98.7806 -71.3662 29.345 2.25568 45.7841 -6.22041 6.85951 49.9666 21.2125 -7.6829 175.376 34.7194 88.5063 -46.2068 13.3796 1.46519 61.5704 -1.96568 -1.06242 27.157 -1.69103 20.373 -1.08152 7.91411 -89.8685 11.0521 -2.09206 0.462249 -0.617231 -2.06967 0.5539 -23.166 -2.13421 -0.188156 -3.15332 -2.1342 -0.188161 85.6572 -47.8165 -108.122 34.251 -3.44592 42.8731 -10.277 -5.17713 -59.8554 -9.80351 -0.362976 -1.46999 -95.6003 -39.2812 66.7817 -24.5763 5.74164 14.4206 19.9907 -10.0228 -108.901 27.7412 3.17616 7.73243 1.10387 -7.58714 -4.09016 5.86264 -6.41184 4.52328 
-17.1252 86.5507 -43.9021 98.4598 -29.3482 93.8396 -178.092 18.1033 98.2521 -76.5826 19.7569 2.54492 48.4733 -2.54302 11.2283 48.6434 19.8105 -8.36579 175.091 35.7047 90.0281 -51.6529 13.3932 0.701736 62.9996 -3.09358 -1.72375 32.5063 -0.358279 19.2277 -0.925005 8.06463 -90.107 10.7454 -1.89133 -0.0384223 -0.924173 -1.89116 0.0448829 -23.4695 -1.7923 -0.605247 -3.45688 -1.79231 -0.605252 84.6344 -49.4606 -109.152 29.7848 -6.34796 34.7374 -7.48272 -7.95649 -51.2534 -10.9145 -0.499191 -0.220992 -98.0847 -41.5008 63.6328 -25.0219 2.3742 13.7919 22.9882 -6.65176 -101.091 26.0644 3.22022 8.64326 3.55434 -8.55068 -2.62136 4.56307 -7.62252 3.82675 
-15.3261 86.3007 -42.2575 99.6495 -30.2269 93.4795 -176.572 21.1788 96.139 -78.3997 12.5156 2.34814 50.2875 0.130791 13.8259 49.6202 20.7675 -8.19114 174.858 34.6137 89.9777 -54.4576 13.6617 0.192976 66.7923 -4.16348 -2.23869 32.9651 -0.271084 19.9227 -0.82637 8.13177 -90.0684 10.6113 -1.67702 0.0156326 -1.05852 -1.67471 0.0894396 -23.6018 -1.60417 -0.48924 -3.58917 -1.60417 -0.489238 84.1603 -48.8646 -110.072 27.8231 -7.90657 27.5135 -5.6493 -10.7258 -43.6018 -8.77729 -0.532735 1.26025 -98.8186 -42.0246 62.685 -27.5363 0.679947 14.0827 23.1446 -1.00469 -91.4263 27.8541 3.42383 8.588 1.85189 -8.92099 -1.09563 5.88698 -8.4102 2.27219 
-13.6902 86.3233 -40.4656 99.2649 -31.0624 92.9865 -174.568 24.9305 95.0164 -77.6673 8.19542 2.05486 51.7065 1.8477 15.6698 53.2714 24.1154 -8.42181 174.939 34.1919 90.7258 -55.887 15.0864 -0.159561 68.91 -4.8725 -2.54006 34.349 0.0449461 20.7691 -0.654709 8.04754 -90.0777 10.7792 -1.33948 -0.0300818 -0.891099 -1.33951 0.028908 -23.4314 -1.26849 -0.431324 -3.41879 -1.2685 -0.431326 84.1095 -49.7585 -109.846 25.4026 -7.21795 22.2969 -6.95439 -12.2519 -42.231 -5.20547 -0.468283 3.58187 -98.7734 -42.1961 62.8272 -30.0701 1.12135 14.0671 19.3117 0.712673 -80.3821 28.9952 3.57733 8.66821 0.806921 -9.53242 -0.91952 6.16477 -8.99614 2.83654 
-12.1387 86.5171 -38.9967 98.331 -32.7195 91.9497 -171.656 28.363 93.4544 -75.0174 4.88139 1.345 53.3928 2.97649 15.4773 54.7922 26.4328 -5.64836 175.914 34.445 91.0581 -56.8537 15.0155 -1.08568 69.308 -5.35303 -2.76814 36.3856 0.551958 20.2956 -0.344801 7.96502 -90.0534 10.944 -0.71109 -0.0388151 -0.726725 -0.712122 -0.00747805 -23.2632 -0.666551 -0.25074 -3.25054 -0.666564 -0.250741 84.0034 -49.7996 -109.992 24.7498 -5.66808 19.1291 -9.31009 -11.8899 -44.867 -3.62419 -0.389591 4.12037 -98.5933 -42.1032 63.0724 -31.9397 2.13018 13.9899 15.1069 2.99063 -70.9148 26.3669 2.76988 6.72099 1.19241 -10.1829 -0.656173 5.88837 -9.65876 3.02088 
-10.5892 86.8075 -37.7171 98.2538 -33.8052 91.3084 -169.377 30.2794 92.174 -71.0256 4.75467 0.319337 55.148 4.09475 16.0203 55.8029 27.7053 -4.81628 176.466 33.5041 90.9827 -57.3233 14.5029 -1.6249 70.7018 -5.98163 -3.03388 36.909 0.656731 17.9365 -0.115965 7.98361 -90.0363 10.9066 -0.247447 -0.0489163 -0.764329 -0.249363 -0.0379856 -23.2996 -0.221313 -0.121031 -3.28698 -0.221304 -0.121027 83.6919 -49.2651 -110.645 24.5582 -5.13791 17.3262 -10.4003 -10.6142 -48.8364 -6.18422 -0.511338 3.05862 -98.4704 -41.9317 63.1964 -33.2412 3.4896 13.8249 15.3669 6.42668 -61.8852 23.3756 2.55238 7.15635 1.49998 -10.6149 -0.0645974 6.54947 -10.1896 2.71849 
